<svg xmlns="http://www.w3.org/2000/svg" width="40.472" height="36.741" viewBox="0 0 40.472 36.741">
    <defs>
        <clipPath id="pjtozfud4a">
            <path data-name="Rectangle 13" style="stroke:#000;stroke-width:.5px;fill:none" d="M0 0h40.472v36.741H0z"/>
        </clipPath>
    </defs>
    <g data-name="Group 9068">
        <g data-name="Group 19">
            <g data-name="Group 18" style="clip-path:url(#pjtozfud4a)">
                <path data-name="Path 6933" d="M39.967 22.586h.5V8.026l-31-2.539-4.593-4.3L3.742 0 .5 2.024a1.067 1.067 0 0 0-.413 1.329l.164.379a1.068 1.068 0 0 0 1.488.515l1.831-.992L8.019 7.7l1.56 17.267c.016.433.354 6.217 6.341 6.217h1.73a3.019 3.019 0 1 0 3.26 0h8.89a3.019 3.019 0 1 0 3.26 0h5.284l.1-.042a2.808 2.808 0 0 0 1.691-2.553 2.372 2.372 0 0 0-1.967-2.5h-1.184v-3.5h2.985M19.28 35.733a2.012 2.012 0 1 1 2.012-2.012 2.014 2.014 0 0 1-2.012 2.012m12.151 0a2.012 2.012 0 1 1 2.012-2.012 2.014 2.014 0 0 1-2.012 2.012m7.7-7.092a1.742 1.742 0 0 1-1 1.535H15.92c-5.186 0-5.331-5.034-5.335-5.247v-.019L9.006 7.431l-.016-.182-.279-.279.339-.507L37.331 8.78a1.492 1.492 0 0 0 2.133 2.074v10.723c-3.218-.006-19.982-.034-20.916 0-1.3.048-2.145 1.237-2.1 2.957a3.153 3.153 0 0 0 1.024 2.415l.135.1h.17l20.388.038c.194 0 .9.371.961 1.55M27.8 26.065V22.57h3.631v3.5l-3.631-.005m-9.818-.018a2.374 2.374 0 0 1-.526-1.537c-.023-.867.259-1.892 1.13-1.924.254-.01 1.773-.014 3.892-.016v3.485l-4.5-.008m5.466-3.477h3.386v3.493l-3.382-.006zm12.568 3.51-3.612-.007v-3.5h3.611z" transform="translate(0 .001)" style="stroke:#000;stroke-width:.5px"/>
                <path data-name="Path 6934" d="M184.654 89.681a.864.864 0 1 0-.864-.864.864.864 0 0 0 .864.864" transform="translate(-157.338 -75.295)" style="stroke:#000;stroke-width:.5px"/>
                <path data-name="Path 6935" d="M213.253 89.681a.864.864 0 1 0-.864-.864.864.864 0 0 0 .864.864" transform="translate(-181.821 -75.295)" style="stroke:#000;stroke-width:.5px"/>
                <path data-name="Path 6936" d="M184.654 115.768a.864.864 0 1 0-.864-.864.864.864 0 0 0 .864.864" transform="translate(-157.338 -97.628)" style="stroke:#000;stroke-width:.5px"/>
                <path data-name="Path 6937" d="M213.253 115.768a.864.864 0 1 0-.864-.864.864.864 0 0 0 .864.864" transform="translate(-181.821 -97.628)" style="stroke:#000;stroke-width:.5px"/>
                <path data-name="Path 6938" d="M103.239 73.074a4.391 4.391 0 0 1 1.99 1.5l-.362-.219-.02-.011c-1.66-.83-4.265 2.272-4.557 2.628l.445.365c.662-.808 2.785-2.993 3.844-2.483l2.234 1.352-.408-.864a5.787 5.787 0 0 0-2.987-2.816c-1.948-.636-4.1.724-4.187.783l.311.484c.02-.013 2.012-1.27 3.7-.719" transform="translate(-84.949 -61.944)" style="stroke:#000;stroke-width:.5px"/>
                <path data-name="Path 6939" d="M97.88 133.023a6.023 6.023 0 0 0-3.719 4.734l.569.086a5.447 5.447 0 0 1 3.34-4.277z" transform="translate(-80.609 -113.878)" style="stroke:#000;stroke-width:.5px"/>
            </g>
        </g>
    </g>
</svg>
