<svg xmlns="http://www.w3.org/2000/svg" width="14.571" height="14.082" viewBox="0 0 14.571 14.082">
    <g data-name="Group 9273">
        <path data-name="Path 6895" d="M190.263 40.232a2.852 2.852 0 0 1-3.48 1.424.381.381 0 0 1-.241-.193.392.392 0 0 1 .448-.563 2.062 2.062 0 0 0 2.579-1.032 4.012 4.012 0 0 0-1.185-4.854l-.014-.01a3.767 3.767 0 0 0-4-.453 4.5 4.5 0 0 0-2.779 3.519 3.257 3.257 0 0 0 1.868 2.992l.014.009a1.694 1.694 0 0 0 1.593-.157 5.214 5.214 0 0 0 1.727-1.42c.288-.373.91-1.314.464-2a.518.518 0 0 0-.478-.249.486.486 0 0 0-.161.043.956.956 0 0 0-.457.649.391.391 0 0 1-.728.083c-.215-.426-.514-.66-.8-.631a.531.531 0 0 0-.443.409c-.125.456.167 1.02.8 1.549a.4.4 0 0 1 .141.27.388.388 0 0 1-.091.285.4.4 0 0 1-.561.039 2.371 2.371 0 0 1-1.044-2.349 1.307 1.307 0 0 1 1.12-.982 1.39 1.39 0 0 1 1.1.406.068.068 0 0 0 .052.018.056.056 0 0 0 .042-.023 1.461 1.461 0 0 1 .538-.435 1.283 1.283 0 0 1 1.21.049.678.678 0 0 1 .073.049 1.632 1.632 0 0 1 .641 1.465 3.5 3.5 0 0 1-.8 1.839 5.9 5.9 0 0 1-2.072 1.683 3.2 3.2 0 0 1-1.321.339h-.038a1.956 1.956 0 0 1-1.024-.216 4.092 4.092 0 0 1-2.149-3.759 5.238 5.238 0 0 1 3.248-4.186 4.527 4.527 0 0 1 4.8.556 4.835 4.835 0 0 1 1.408 5.843" transform="translate(-178.157 -27.913)" style="fill:#fff"/>
        <path data-name="Path 6896" d="M166.323 22.1a1.274 1.274 0 0 0-1.191.516 2.071 2.071 0 0 0-.272 2.013 2.2 2.2 0 0 0 1.761 1.419h.088a1.485 1.485 0 0 0 1.384-1.469 2.533 2.533 0 0 0-1.771-2.481m1.066 2.435c-.027.42-.287.832-.731.807a1.539 1.539 0 0 1-1.14-.971 1.369 1.369 0 0 1 .167-1.316.6.6 0 0 1 .535-.257 1.39 1.39 0 0 1 .793.606 1.821 1.821 0 0 1 .375 1.13" transform="translate(-164.716 -18.464)" style="fill:#fff"/>
        <path data-name="Path 6897" d="M184.074 1.532a1.4 1.4 0 0 0-1.363.425 2.305 2.305 0 0 0-.541 2.2 2.454 2.454 0 0 0 1.779 1.784 1.509 1.509 0 0 0 .246.02h.012a1.668 1.668 0 0 0 1.531-1.461 2.828 2.828 0 0 0-1.664-2.967m.969 2.845a.917.917 0 0 1-.981.863 1.726 1.726 0 0 1-1.21-1.272 1.608 1.608 0 0 1 .362-1.514.724.724 0 0 1 .683-.237 2.152 2.152 0 0 1 1.146 2.161" transform="translate(-179.237 -1.246)" style="fill:#fff"/>
        <path data-name="Path 6898" d="M212.02.3a1.7 1.7 0 0 0-2.36.48 2.98 2.98 0 0 0 .119 3.582 1.376 1.376 0 0 0 .934.348h.014a1.75 1.75 0 0 0 .525-.088 2.426 2.426 0 0 0 1.567-1.792 2.585 2.585 0 0 0-.8-2.53m.108 2.381a1.73 1.73 0 0 1-1.095 1.269.791.791 0 0 1-.782-.114 2.312 2.312 0 0 1-.029-2.628 1.2 1.2 0 0 1 .889-.5.789.789 0 0 1 .49.162 1.858 1.858 0 0 1 .529 1.813" transform="translate(-201.835)" style="fill:#fff"/>
        <path data-name="Path 6899" d="M236.72 19.092a1.218 1.218 0 0 0-1.163-.467 2.076 2.076 0 0 0-1.593 1.258 2.237 2.237 0 0 0 .239 2.236 1.236 1.236 0 0 0 .879.427h.078a1.653 1.653 0 0 0 1.08-.453 2.6 2.6 0 0 0 .48-3m-.44 1.406a1.875 1.875 0 0 1-.518 1.076.924.924 0 0 1-.644.266.54.54 0 0 1-.386-.191 1.575 1.575 0 0 1-.116-1.493 1.349 1.349 0 0 1 1.025-.83.774.774 0 0 1 .087-.005.485.485 0 0 1 .423.188 1.42 1.42 0 0 1 .13.988" transform="translate(-222.441 -15.56)" style="fill:#fff"/>
    </g>
</svg>
