<svg xmlns="http://www.w3.org/2000/svg" width="31.143" height="27.984" viewBox="0 0 31.143 27.984">
    <path data-name="Path 7023" d="M199.187 175.318a.82.82 0 0 1-.574-.234l-11.953-11.736c-4.59-4.506-3.4-9.9-.356-13a9.143 9.143 0 0 1 12.883-.434 9.185 9.185 0 1 1 12.526 13.434l-11.952 11.737a.82.82 0 0 1-.574.234zm-6.208-26.212c-.119 0-.238 0-.358.009a7.891 7.891 0 0 0-5.148 2.381 7.45 7.45 0 0 0-2.209 4.974 7.664 7.664 0 0 0 2.544 5.709l11.379 11.172 11.379-11.173a7.661 7.661 0 0 0 2.543-5.709 7.445 7.445 0 0 0-2.209-4.969c-2.6-2.652-7.2-3.75-11.139.116a.82.82 0 0 1-1.148 0 8.012 8.012 0 0 0-5.634-2.506z" transform="translate(-183.611 -147.335)" style="fill:#fff"/>
</svg>
